<?xml version="1.0" encoding="UTF-8" standalone="no"?>
<svg
   width="600"
   height="200"
   viewBox="0 0 600 200"
   version="1.1"
   id="svg4"
   sodipodi:docname="logo.svg"
   inkscape:version="1.3.2 (091e20e, 2023-11-25, custom)"
   inkscape:export-filename="logo.png"
   inkscape:export-xdpi="96"
   inkscape:export-ydpi="96"
   xmlns:inkscape="http://www.inkscape.org/namespaces/inkscape"
   xmlns:sodipodi="http://sodipodi.sourceforge.net/DTD/sodipodi-0.dtd"
   xmlns="http://www.w3.org/2000/svg"
   xmlns:svg="http://www.w3.org/2000/svg">
  <defs
     id="defs4">
    <inkscape:path-effect
       effect="mirror_symmetry"
       start_point="100.19521,57.3462"
       end_point="100.19521,189.3462"
       center_point="100.19521,123.3462"
       id="path-effect1"
       is_visible="true"
       lpeversion="1.2"
       lpesatellites=""
       mode="free"
       discard_orig_path="false"
       fuse_paths="false"
       oposite_fuse="false"
       split_items="false"
       split_open="false"
       link_styles="false" />
    <inkscape:path-effect
       effect="mirror_symmetry"
       start_point="100,71.213359"
       end_point="100,167.3462"
       center_point="100,119.27978"
       id="path-effect15"
       is_visible="true"
       lpeversion="1.2"
       lpesatellites=""
       mode="free"
       discard_orig_path="false"
       fuse_paths="false"
       oposite_fuse="false"
       split_items="false"
       split_open="false"
       link_styles="false" />
    <inkscape:path-effect
       effect="mirror_symmetry"
       start_point="100,128.55996"
       end_point="100,165"
       center_point="100,146.77998"
       id="path-effect4"
       is_visible="true"
       lpeversion="1.2"
       lpesatellites=""
       mode="free"
       discard_orig_path="false"
       fuse_paths="false"
       oposite_fuse="false"
       split_items="false"
       split_open="false"
       link_styles="false" />
    <clipPath
       id="clipPath1792"
       clipPathUnits="userSpaceOnUse">
      <path
         id="path1790"
         d="m 2967.12,1374.65 c 0,-268.98 -218.04,-487.009 -487.01,-487.009 -268.97,0 -487.01,218.029 -487.01,487.009 0,268.96 218.04,487.01 487.01,487.01 268.97,0 487.01,-218.05 487.01,-487.01 z" />
    </clipPath>
    <linearGradient
       id="linearGradient1804"
       spreadMethod="pad"
       gradientTransform="matrix(974.022,0,0,-974.022,1993.1,1374.65)"
       gradientUnits="userSpaceOnUse"
       y2="0"
       x2="1"
       y1="0"
       x1="0">
      <stop
         id="stop1794"
         offset="0"
         style="stop-opacity:1;stop-color:#e2cc6c" />
      <stop
         id="stop1796"
         offset="0.135678"
         style="stop-opacity:1;stop-color:#e2cc6c" />
      <stop
         id="stop1798"
         offset="0.417085"
         style="stop-opacity:1;stop-color:#fbfcdb" />
      <stop
         id="stop1800"
         offset="0.864322"
         style="stop-opacity:1;stop-color:#e2cc6c" />
      <stop
         id="stop1802"
         offset="1"
         style="stop-opacity:1;stop-color:#e2cc6c" />
    </linearGradient>
    <clipPath
       id="clipPath1814"
       clipPathUnits="userSpaceOnUse">
      <path
         id="path1812"
         d="m 2480.11,1811.8 c -241.05,0 -437.15,-196.11 -437.15,-437.15 0,-241.05 196.1,-437.15 437.15,-437.15 241.04,0 437.15,196.1 437.15,437.15 0,241.04 -196.11,437.15 -437.15,437.15 z m 0,-896.812 c -253.45,0 -459.66,206.202 -459.66,459.662 0,253.45 206.21,459.66 459.66,459.66 253.45,0 459.66,-206.21 459.66,-459.66 0,-253.46 -206.21,-459.662 -459.66,-459.662 z" />
    </clipPath>
    <linearGradient
       id="linearGradient1820"
       spreadMethod="pad"
       gradientTransform="matrix(919.316,0,0,-919.316,2020.45,1374.64)"
       gradientUnits="userSpaceOnUse"
       y2="0"
       x2="1"
       y1="0"
       x1="0">
      <stop
         id="stop1816"
         offset="0"
         style="stop-opacity:1;stop-color:#15331e" />
      <stop
         id="stop1818"
         offset="1"
         style="stop-opacity:1;stop-color:#377b4f" />
    </linearGradient>
    <clipPath
       id="clipPath1830"
       clipPathUnits="userSpaceOnUse">
      <path
         id="path1828"
         d="m 2297.5,1691.14 c -11.71,-9.43 -46.25,-29.24 -25.52,-89.31 20.74,-60.08 46.26,-130.79 46.26,-173.32 0,-42.54 -26.05,-73.37 -98.89,-73.37 -71.69,0 -94.45,39.14 -71.33,92.08 0.26,0.57 -0.44,1.08 -0.88,0.64 -8.39,-8.45 -38.3,-44.39 -2.22,-98.05 41.47,-61.67 132.91,-30.83 163.22,2.13 21.87,23.8 36.15,42.01 19.67,165.88 -7.98,60.62 -18.08,96.23 -2.13,112.19 15.95,15.95 17.02,18.6 11.7,26.58 -5.32,7.97 -16.62,25.97 -23.4,34.55 -5.01,6.35 -6.9,7.72 -16.48,0 z" />
    </clipPath>
    <linearGradient
       id="linearGradient1836"
       spreadMethod="pad"
       gradientTransform="matrix(660.23,-267.92,-267.92,-660.23,2155.18,1544.7)"
       gradientUnits="userSpaceOnUse"
       y2="0"
       x2="1"
       y1="0"
       x1="0">
      <stop
         id="stop1832"
         offset="0"
         style="stop-opacity:1;stop-color:#15331e" />
      <stop
         id="stop1834"
         offset="1"
         style="stop-opacity:1;stop-color:#377b4f" />
    </linearGradient>
    <clipPath
       id="clipPath1846"
       clipPathUnits="userSpaceOnUse">
      <path
         id="path1844"
         d="m 2354.71,1598.95 c -1.12,0.14 -2.14,-0.6 -2.38,-1.7 -2.08,-9.34 -9.05,-50.39 23.33,-71.99 36.68,-24.45 47.32,-11.16 63.8,-40.4 9.9,-17.57 9.44,-34.74 7.49,-45.66 -0.44,-2.52 3.06,-3.63 4.12,-1.31 5.17,11.42 9.22,33.51 -2.99,72.49 -19.87,63.43 -64.76,84.88 -93.37,88.57 z" />
    </clipPath>
    <linearGradient
       id="linearGradient1852"
       spreadMethod="pad"
       gradientTransform="matrix(660.231,-267.92,-267.92,-660.231,2181.22,1608.86)"
       gradientUnits="userSpaceOnUse"
       y2="0"
       x2="1"
       y1="0"
       x1="0">
      <stop
         id="stop1848"
         offset="0"
         style="stop-opacity:1;stop-color:#15331e" />
      <stop
         id="stop1850"
         offset="1"
         style="stop-opacity:1;stop-color:#377b4f" />
    </linearGradient>
    <clipPath
       id="clipPath1862"
       clipPathUnits="userSpaceOnUse">
      <path
         id="path1860"
         d="m 2534.89,1632.39 c -3.06,-33.44 -8.77,-160.29 -74.16,-224.89 -55,-54.33 -126.93,-79.88 -148.41,-86.64 -1.41,-0.44 -1.17,-2.5 0.3,-2.63 21.69,-1.87 92.62,-3.27 151.3,49.4 54.85,49.24 73.16,127.72 78.54,159.65 0.27,1.6 2.62,1.44 2.69,-0.19 0.92,-22.5 2.17,-66.47 -0.69,-95.66 -3.98,-40.68 3.99,-90.91 63,-90.91 58.89,0 89.98,44.46 201.83,44.66 0.46,0 0.89,0.22 1.13,0.6 l 25.96,40.04 c 0.61,0.96 -0.13,2.2 -1.26,2.09 -9.43,-0.96 -40.75,-2.98 -68.16,8.71 -32.69,13.95 -45.46,29.89 -82.14,29.89 -32.96,0 -63.99,-18.01 -78.63,-47.14 -0.7,-1.38 1.15,-2.66 2.21,-1.52 8.91,9.69 27.84,23.95 62.07,23.95 43.64,0 66.37,-20.92 72.46,-27.53 0.75,-0.82 0.28,-2.14 -0.82,-2.27 -8.53,-1.01 -30.3,-4.64 -47.72,-9.29 -14.17,-3.76 -47.85,-15.14 -77.36,-15.14 -29.5,0 -50.24,9.75 -50.24,87.42 0,76.47 10.06,130.22 -27.72,169.92 -0.74,0.79 -2.1,0.42 -2.32,-0.64 -0.61,-2.76 -1.37,-6.52 -1.86,-11.88 z" />
    </clipPath>
    <linearGradient
       id="linearGradient1868"
       spreadMethod="pad"
       gradientTransform="matrix(660.228,-267.919,-267.919,-660.228,2171.47,1584.83)"
       gradientUnits="userSpaceOnUse"
       y2="0"
       x2="1"
       y1="0"
       x1="0">
      <stop
         id="stop1864"
         offset="0"
         style="stop-opacity:1;stop-color:#15331e" />
      <stop
         id="stop1866"
         offset="1"
         style="stop-opacity:1;stop-color:#377b4f" />
    </linearGradient>
    <clipPath
       id="clipPath1878"
       clipPathUnits="userSpaceOnUse">
      <path
         id="path1876"
         d="m 2360.55,1192.43 c 0,-10.34 1.53,-11.96 11.05,-12.26 v -3.85 h -32.83 v 3.85 c 9.53,0.3 11.15,2.03 11.15,11.55 v 21.98 h -41.04 v -21.27 c 0,-10.34 1.52,-11.96 11.05,-12.26 v -3.85 h -32.83 v 3.85 c 9.52,0.3 11.14,2.03 11.14,11.55 v 47.22 c 0,9.42 -1.41,11.14 -10.13,11.54 v 3.86 h 30.8 v -3.86 c -8.71,-0.3 -10.03,-2.02 -10.03,-12.26 v -19.45 h 41.04 v 20.17 c 0,9.42 -1.42,11.14 -10.13,11.54 v 3.86 h 30.8 v -3.86 c -8.72,-0.3 -10.04,-2.02 -10.04,-12.26 z" />
    </clipPath>
    <linearGradient
       id="linearGradient1884"
       spreadMethod="pad"
       gradientTransform="matrix(450.777,0,0,-450.777,2220.82,1154.04)"
       gradientUnits="userSpaceOnUse"
       y2="0"
       x2="1"
       y1="0"
       x1="0">
      <stop
         id="stop1880"
         offset="0"
         style="stop-opacity:1;stop-color:#15331e" />
      <stop
         id="stop1882"
         offset="1"
         style="stop-opacity:1;stop-color:#377b4f" />
    </linearGradient>
    <clipPath
       id="clipPath1894"
       clipPathUnits="userSpaceOnUse">
      <path
         id="path1892"
         d="m 2400.86,1209.65 h 23.1 l -11.25,29.89 z m 25.02,-5.06 h -27.05 c -4.66,-11.15 -6.28,-16.72 -6.28,-19.45 0,-3.75 2.33,-4.97 7.9,-4.97 v -3.85 h -24.62 v 3.85 c 6.18,0.71 8.72,2.43 11.05,8.21 l 26.34,65.96 h 4.35 l 23.01,-57.15 c 6.17,-15.2 8.4,-16.92 15.4,-16.92 v -3.95 h -33.04 v 3.95 c 7.2,0 9.43,1.21 9.43,4.36 0,2.63 -0.51,4.35 -2.33,9.01 z" />
    </clipPath>
    <clipPath
       id="clipPath1910"
       clipPathUnits="userSpaceOnUse">
      <path
         id="path1908"
         d="m 2524.84,1176.32 h -65.44 v 3.85 c 9.52,0.3 11.14,2.03 11.14,11.55 v 47.22 c 0,9.42 -1.41,11.14 -10.13,11.54 v 3.86 h 30.81 v -3.86 c -8.72,-0.3 -10.04,-2.02 -10.04,-12.26 v -43.66 c 0,-11.35 4.05,-13.68 18.03,-13.68 15.51,0 20.37,2.83 23.3,15.4 h 3.86 z" />
    </clipPath>
    <clipPath
       id="clipPath1926"
       clipPathUnits="userSpaceOnUse">
      <path
         id="path1924"
         d="m 2553.1,1209.65 h 23.1 l -11.25,29.89 z m 25.03,-5.06 h -27.06 c -4.65,-11.15 -6.28,-16.72 -6.28,-19.45 0,-3.75 2.33,-4.97 7.91,-4.97 v -3.85 h -24.62 v 3.85 c 6.18,0.71 8.71,2.43 11.04,8.21 l 26.34,65.96 h 4.35 l 23,-57.15 c 6.18,-15.2 8.41,-16.92 15.4,-16.92 v -3.95 h -33.02 v 3.95 c 7.19,0 9.42,1.21 9.42,4.36 0,2.63 -0.51,4.35 -2.33,9.01 z" />
    </clipPath>
    <clipPath
       id="clipPath1942"
       clipPathUnits="userSpaceOnUse">
      <path
         id="path1940"
         d="m 2677.09,1176.32 h -65.45 v 3.85 c 9.52,0.3 11.14,2.03 11.14,11.55 v 47.22 c 0,9.42 -1.41,11.14 -10.12,11.54 v 3.86 h 30.8 v -3.86 c -8.72,-0.3 -10.03,-2.02 -10.03,-12.26 v -43.66 c 0,-11.35 4.04,-13.68 18.03,-13.68 15.5,0 20.37,2.83 23.3,15.4 h 3.85 z" />
    </clipPath>
    <clipPath
       id="clipPath1958"
       clipPathUnits="userSpaceOnUse">
      <path
         id="path1956"
         d="m 2332.28,1070.88 c 0,-10.34 1.82,-11.96 14.08,-12.27 v -3.84 h -35.87 v 3.84 c 9.52,0.31 11.15,2.03 11.15,11.56 v 47.21 c 0,9.43 -1.42,11.15 -10.14,11.56 v 3.84 h 58.57 l 1.11,-19.35 h -3.54 c -1.73,11.55 -6.29,14.49 -20.77,14.49 H 2334 c -1.11,0 -1.72,-0.71 -1.72,-1.73 v -30.59 c 13.07,0 18.23,2.43 19.15,12.66 h 3.54 v -29.69 h -3.54 c -1.43,10.34 -5.38,12.88 -19.15,12.97 z" />
    </clipPath>
    <clipPath
       id="clipPath1974"
       clipPathUnits="userSpaceOnUse">
      <path
         id="path1972"
         d="m 2450.9,1092.86 c 0,21.68 -11.14,35.36 -28.97,35.36 -17.83,0 -28.98,-13.68 -28.98,-35.36 0,-20.57 11.15,-33.53 28.98,-33.53 17.73,0 28.97,12.96 28.97,33.53 z m 13.18,0.3 c 0,-21.98 -18.65,-39.41 -42.15,-39.41 -23.51,0 -42.15,17.43 -42.15,39.41 0,22.9 18.44,40.64 42.15,40.64 23.7,0 42.15,-17.74 42.15,-40.64 z" />
    </clipPath>
    <clipPath
       id="clipPath1990"
       clipPathUnits="userSpaceOnUse">
      <path
         id="path1988"
         d="m 2546.92,1092.86 c 0,21.68 -11.14,35.36 -28.97,35.36 -17.83,0 -28.98,-13.68 -28.98,-35.36 0,-20.57 11.15,-33.53 28.98,-33.53 17.72,0 28.97,12.96 28.97,33.53 z m 13.18,0.3 c 0,-21.98 -18.64,-39.41 -42.15,-39.41 -23.5,0 -42.14,17.43 -42.14,39.41 0,22.9 18.43,40.64 42.14,40.64 23.71,0 42.15,-17.74 42.15,-40.64 z" />
    </clipPath>
    <clipPath
       id="clipPath2006"
       clipPathUnits="userSpaceOnUse">
      <path
         id="path2004"
         d="m 2593.11,1127.81 c -1.12,0 -1.72,-0.7 -1.72,-1.72 v -54.81 c 0,-7.8 4.86,-11.55 15.08,-11.55 18.34,0 28.69,11.25 28.69,32.53 0,22.39 -11.16,35.55 -29.18,35.55 z m -24.53,-73.04 v 3.84 c 10.34,0.31 12.16,1.93 12.16,11.56 v 47.21 c 0,9.43 -1.41,11.15 -10.12,11.56 v 3.84 h 35.55 c 24.43,0 42.15,-17.02 42.15,-40.33 0,-22.19 -16.51,-37.68 -40.12,-37.68 z" />
    </clipPath>
  </defs>
  <sodipodi:namedview
     id="namedview4"
     pagecolor="#ffffff"
     bordercolor="#000000"
     borderopacity="0.25"
     inkscape:showpageshadow="2"
     inkscape:pageopacity="0.0"
     inkscape:pagecheckerboard="0"
     inkscape:deskcolor="#d1d1d1"
     inkscape:zoom="0.70710678"
     inkscape:cx="209.30361"
     inkscape:cy="375.4737"
     inkscape:window-width="1920"
     inkscape:window-height="1009"
     inkscape:window-x="1912"
     inkscape:window-y="-8"
     inkscape:window-maximized="1"
     inkscape:current-layer="svg4"
     showguides="true">
    <sodipodi:guide
       position="100.19521,142.6538"
       orientation="1,0"
       id="guide1"
       inkscape:locked="false" />
    <sodipodi:guide
       position="24.384994,143.68038"
       orientation="0,-1"
       id="guide2"
       inkscape:locked="false" />
    <sodipodi:guide
       position="100.19521,10.6538"
       orientation="0,-1"
       id="guide3"
       inkscape:locked="false" />
  </sodipodi:namedview>
  <!-- Background Bag Shape -->
  <!-- Handle -->
  <!-- White Inner Shape (Symmetrical) -->
  <!-- White Circle/Loop -->
  <!-- Orange Pin/Drop Shape (Centered inside the white circle) -->
  <g
     id="g1"
     inkscape:export-filename="full-=logo.png"
     inkscape:export-xdpi="96"
     inkscape:export-ydpi="96">
    <path
       d="M 30.897892,56.31962 H 100.19521 V 189.3462 C 42.742234,187.8918 22.566921,187.24441 18.894339,164.74014 15.741445,145.42032 27.766858,58.747531 28.23691,57.627326 28.706963,56.50712 29.818913,56.31962 30.897892,56.31962 Z m 138.594638,0 H 100.19521 V 189.3462 c 57.45298,-1.4544 77.62829,-2.10179 81.30087,-24.60606 3.15289,-19.31982 -8.87252,-105.992609 -9.34257,-107.112814 -0.47005,-1.120206 -1.582,-1.307706 -2.66098,-1.307706 z"
       fill="#2e8b44"
       id="path1"
       sodipodi:nodetypes="zcczzz"
       inkscape:path-effect="#path-effect1"
       inkscape:original-d="M 30.897892,56.31962 H 100.19521 V 189.3462 C 42.742234,187.8918 22.566921,187.24441 18.894339,164.74014 15.741445,145.42032 27.766858,58.747531 28.23691,57.627326 28.706963,56.50712 29.818913,56.31962 30.897892,56.31962 Z"
       inkscape:export-filename=".\path1.png"
       inkscape:export-xdpi="96"
       inkscape:export-ydpi="96" />
    <path
       d="m 63,57.3462 c 0,-26.666667 20.333333,-40 37,-40 16.66667,0 37,13.333333 37,40"
       fill="none"
       stroke="#2e8b44"
       stroke-width="18"
       stroke-linecap="round"
       id="path2"
       sodipodi:nodetypes="csc" />
    <path
       d="m 100,165 v -14.50185 c -35.161002,0 -71.915183,-21.45348 -72.547013,-21.69379 -0.63183,-0.24031 -2.552332,-0.77762 -1.365799,1.30436 C 27.273721,132.1907 63.644448,164.2957 100,165 Z m 0,0 v -14.50185 c 35.161,0 71.91518,-21.45348 72.54701,-21.69379 0.63183,-0.24031 2.55233,-0.77762 1.3658,1.30436 C 172.72628,132.1907 136.35555,164.2957 100,165 Z"
       fill="#ffffff"
       id="path3"
       sodipodi:nodetypes="cczzc"
       inkscape:path-effect="#path-effect4"
       inkscape:original-d="m 100,165 v -14.50185 c -35.161002,0 -71.915183,-21.45348 -72.547013,-21.69379 -0.63183,-0.24031 -2.552332,-0.77762 -1.365799,1.30436 C 27.273721,132.1907 63.644448,164.2957 100,165 Z"
       transform="translate(0,4.3461997)" />
    <path
       d="m 99.999998,167.3462 c 0,0 -35.975406,-30.67486 -35.801456,-60.33138 0.125994,-21.480505 14.320582,-35.801465 35.801456,-35.801465 1.2e-5,15.750073 0,96.132845 0,96.132845 z m 2e-6,0 c 0,0 35.97541,-30.67486 35.80146,-60.33138 C 135.67546,85.534315 121.48088,71.213355 100,71.213355 c -1e-5,15.750073 0,96.132845 0,96.132845 z"
       fill="#f58220"
       id="path4"
       sodipodi:nodetypes="cscc"
       style="fill:#fffffe;fill-opacity:1;stroke-width:1.43206"
       inkscape:path-effect="#path-effect15"
       inkscape:original-d="m 99.999998,167.3462 c 0,0 -35.975406,-30.67486 -35.801456,-60.33138 0.125994,-21.480505 14.320582,-35.801465 35.801456,-35.801465 1.2e-5,15.750073 0,96.132845 0,96.132845 z"
       transform="matrix(0.98392894,0,0,1,1.6071101,2)" />
    <path
       d="m 100.19521,159.66995 c 0,0 -31.495612,-31.49534 -31.495612,-50.08805 0,-18.592682 12.52016,-30.987822 31.300412,-30.987822 18.78022,0 31.30039,12.39514 31.30039,30.987822 0,18.59271 -31.10519,50.08805 -31.10519,50.08805 z"
       fill="#f58220"
       id="path5"
       sodipodi:nodetypes="csssc"
       style="stroke-width:1.24574" />
    <g
       id="g13"
       transform="matrix(0.09424771,0.68768952,-0.68262482,0.09355359,114.47917,8.5283558)"
       inkscape:label="halal mark">
      <path
         id="path1806"
         style="display:none;fill:#ffffff;fill-opacity:1;fill-rule:nonzero;stroke:none"
         d="m 2967.12,1374.65 c 0,-268.98 -218.04,-487.009 -487.01,-487.009 -268.97,0 -487.01,218.029 -487.01,487.009 0,268.96 218.04,487.01 487.01,487.01 268.97,0 487.01,-218.05 487.01,-487.01"
         transform="matrix(0.13333334,0,0,-0.13333334,-170.74666,232.22132)" />
      <g
         id="g15"
         inkscape:label="arab"
         style="fill:#ffffff;fill-opacity:1"
         transform="matrix(1.1691119,0,0,1.1691119,-26.559085,-1.9720486)">
        <g
           id="g1824"
           transform="matrix(0.13333333,0,0,-0.13333333,-170.74666,232.22133)"
           style="fill:#ffffff;fill-opacity:1">
          <g
             clip-path="url(#clipPath1830)"
             id="g1826"
             style="fill:#ffffff;fill-opacity:1">
            <path
               id="path1838"
               style="fill:#ffffff;fill-opacity:1;fill-rule:nonzero;stroke:none"
               d="m 2297.5,1691.14 c -11.71,-9.43 -46.25,-29.24 -25.52,-89.31 20.74,-60.08 46.26,-130.79 46.26,-173.32 0,-42.54 -26.05,-73.37 -98.89,-73.37 -71.69,0 -94.45,39.14 -71.33,92.08 0.26,0.57 -0.44,1.08 -0.88,0.64 -8.39,-8.45 -38.3,-44.39 -2.22,-98.05 41.47,-61.67 132.91,-30.83 163.22,2.13 21.87,23.8 36.15,42.01 19.67,165.88 -7.98,60.62 -18.08,96.23 -2.13,112.19 15.95,15.95 17.02,18.6 11.7,26.58 -5.32,7.97 -16.62,25.97 -23.4,34.55 -5.01,6.35 -6.9,7.72 -16.48,0" />
          </g>
        </g>
        <g
           id="g1840"
           transform="matrix(0.13333333,0,0,-0.13333333,-170.74666,232.22133)"
           style="fill:#ffffff;fill-opacity:1">
          <g
             clip-path="url(#clipPath1846)"
             id="g1842"
             style="fill:#ffffff;fill-opacity:1">
            <path
               id="path1854"
               style="fill:#ffffff;fill-opacity:1;fill-rule:nonzero;stroke:none"
               d="m 2354.71,1598.95 c -1.12,0.14 -2.14,-0.6 -2.38,-1.7 -2.08,-9.34 -9.05,-50.39 23.33,-71.99 36.68,-24.45 47.32,-11.16 63.8,-40.4 9.9,-17.57 9.44,-34.74 7.49,-45.66 -0.44,-2.52 3.06,-3.63 4.12,-1.31 5.17,11.42 9.22,33.51 -2.99,72.49 -19.87,63.43 -64.76,84.88 -93.37,88.57" />
          </g>
        </g>
        <g
           id="g1856"
           transform="matrix(0.13333333,0,0,-0.13333333,-170.74666,232.22133)"
           style="fill:#ffffff;fill-opacity:1">
          <g
             clip-path="url(#clipPath1862)"
             id="g1858"
             style="fill:#ffffff;fill-opacity:1">
            <path
               id="path1870"
               style="fill:#ffffff;fill-opacity:1;fill-rule:nonzero;stroke:none"
               d="m 2534.89,1632.39 c -3.06,-33.44 -8.77,-160.29 -74.16,-224.89 -55,-54.33 -126.93,-79.88 -148.41,-86.64 -1.41,-0.44 -1.17,-2.5 0.3,-2.63 21.69,-1.87 92.62,-3.27 151.3,49.4 54.85,49.24 73.16,127.72 78.54,159.65 0.27,1.6 2.62,1.44 2.69,-0.19 0.92,-22.5 2.17,-66.47 -0.69,-95.66 -3.98,-40.68 3.99,-90.91 63,-90.91 58.89,0 89.98,44.46 201.83,44.66 0.46,0 0.89,0.22 1.13,0.6 l 25.96,40.04 c 0.61,0.96 -0.13,2.2 -1.26,2.09 -9.43,-0.96 -40.75,-2.98 -68.16,8.71 -32.69,13.95 -45.46,29.89 -82.14,29.89 -32.96,0 -63.99,-18.01 -78.63,-47.14 -0.7,-1.38 1.15,-2.66 2.21,-1.52 8.91,9.69 27.84,23.95 62.07,23.95 43.64,0 66.37,-20.92 72.46,-27.53 0.75,-0.82 0.28,-2.14 -0.82,-2.27 -8.53,-1.01 -30.3,-4.64 -47.72,-9.29 -14.17,-3.76 -47.85,-15.14 -77.36,-15.14 -29.5,0 -50.24,9.75 -50.24,87.42 0,76.47 10.06,130.22 -27.72,169.92 -0.74,0.79 -2.1,0.42 -2.32,-0.64 -0.61,-2.76 -1.37,-6.52 -1.86,-11.88" />
          </g>
        </g>
      </g>
      <g
         id="g14"
         inkscape:label="eng"
         style="display:none;fill:#2e8b44;fill-opacity:1"
         transform="matrix(1.4765529,0,0,1.4765529,-75.965466,-23.456652)">
        <g
           id="g1872"
           transform="matrix(0.13333333,0,0,-0.13333333,-170.74666,232.22133)"
           style="fill:#2e8b44;fill-opacity:1">
          <g
             clip-path="url(#clipPath1878)"
             id="g1874"
             style="fill:#2e8b44;fill-opacity:1">
            <path
               id="path1886"
               style="fill:#2e8b44;fill-opacity:1;fill-rule:nonzero;stroke:none"
               d="m 2360.55,1192.43 c 0,-10.34 1.53,-11.96 11.05,-12.26 v -3.85 h -32.83 v 3.85 c 9.53,0.3 11.15,2.03 11.15,11.55 v 21.98 h -41.04 v -21.27 c 0,-10.34 1.52,-11.96 11.05,-12.26 v -3.85 h -32.83 v 3.85 c 9.52,0.3 11.14,2.03 11.14,11.55 v 47.22 c 0,9.42 -1.41,11.14 -10.13,11.54 v 3.86 h 30.8 v -3.86 c -8.71,-0.3 -10.03,-2.02 -10.03,-12.26 v -19.45 h 41.04 v 20.17 c 0,9.42 -1.42,11.14 -10.13,11.54 v 3.86 h 30.8 v -3.86 c -8.72,-0.3 -10.04,-2.02 -10.04,-12.26 v -45.79" />
          </g>
        </g>
        <g
           id="g1888"
           transform="matrix(0.13333333,0,0,-0.13333333,-170.74666,232.22133)"
           style="fill:#2e8b44;fill-opacity:1">
          <g
             clip-path="url(#clipPath1894)"
             id="g1890"
             style="fill:#2e8b44;fill-opacity:1">
            <path
               id="path1902"
               style="fill:#2e8b44;fill-opacity:1;fill-rule:nonzero;stroke:none"
               d="m 2400.86,1209.65 h 23.1 l -11.25,29.89 z m 25.02,-5.06 h -27.05 c -4.66,-11.15 -6.28,-16.72 -6.28,-19.45 0,-3.75 2.33,-4.97 7.9,-4.97 v -3.85 h -24.62 v 3.85 c 6.18,0.71 8.72,2.43 11.05,8.21 l 26.34,65.96 h 4.35 l 23.01,-57.15 c 6.17,-15.2 8.4,-16.92 15.4,-16.92 v -3.95 h -33.04 v 3.95 c 7.2,0 9.43,1.21 9.43,4.36 0,2.63 -0.51,4.35 -2.33,9.01 l -4.16,10.95" />
          </g>
        </g>
        <g
           id="g1904"
           transform="matrix(0.13333333,0,0,-0.13333333,-170.74666,232.22133)"
           style="fill:#2e8b44;fill-opacity:1">
          <g
             clip-path="url(#clipPath1910)"
             id="g1906"
             style="fill:#2e8b44;fill-opacity:1">
            <path
               id="path1918"
               style="fill:#2e8b44;fill-opacity:1;fill-rule:nonzero;stroke:none"
               d="m 2524.84,1176.32 h -65.44 v 3.85 c 9.52,0.3 11.14,2.03 11.14,11.55 v 47.22 c 0,9.42 -1.41,11.14 -10.13,11.54 v 3.86 h 30.81 v -3.86 c -8.72,-0.3 -10.04,-2.02 -10.04,-12.26 v -43.66 c 0,-11.35 4.05,-13.68 18.03,-13.68 15.51,0 20.37,2.83 23.3,15.4 h 3.86 l -1.53,-19.96" />
          </g>
        </g>
        <g
           id="g1920"
           transform="matrix(0.13333333,0,0,-0.13333333,-170.74666,232.22133)"
           style="fill:#2e8b44;fill-opacity:1">
          <g
             clip-path="url(#clipPath1926)"
             id="g1922"
             style="fill:#2e8b44;fill-opacity:1">
            <path
               id="path1934"
               style="fill:#2e8b44;fill-opacity:1;fill-rule:nonzero;stroke:none"
               d="m 2553.1,1209.65 h 23.1 l -11.25,29.89 z m 25.03,-5.06 h -27.06 c -4.65,-11.15 -6.28,-16.72 -6.28,-19.45 0,-3.75 2.33,-4.97 7.91,-4.97 v -3.85 h -24.62 v 3.85 c 6.18,0.71 8.71,2.43 11.04,8.21 l 26.34,65.96 h 4.35 l 23,-57.15 c 6.18,-15.2 8.41,-16.92 15.4,-16.92 v -3.95 h -33.02 v 3.95 c 7.19,0 9.42,1.21 9.42,4.36 0,2.63 -0.51,4.35 -2.33,9.01 l -4.15,10.95" />
          </g>
        </g>
        <g
           id="g1936"
           transform="matrix(0.13333333,0,0,-0.13333333,-170.74666,232.22133)"
           style="fill:#2e8b44;fill-opacity:1">
          <g
             clip-path="url(#clipPath1942)"
             id="g1938"
             style="fill:#2e8b44;fill-opacity:1">
            <path
               id="path1950"
               style="fill:#2e8b44;fill-opacity:1;fill-rule:nonzero;stroke:none"
               d="m 2677.09,1176.32 h -65.45 v 3.85 c 9.52,0.3 11.14,2.03 11.14,11.55 v 47.22 c 0,9.42 -1.41,11.14 -10.12,11.54 v 3.86 h 30.8 v -3.86 c -8.72,-0.3 -10.03,-2.02 -10.03,-12.26 v -43.66 c 0,-11.35 4.04,-13.68 18.03,-13.68 15.5,0 20.37,2.83 23.3,15.4 h 3.85 l -1.52,-19.96" />
          </g>
        </g>
      </g>
    </g>
  </g>
  <text
     xml:space="preserve"
     style="font-weight:bold;font-size:165.167px;line-height:1.1;font-family:'Times New Roman';-inkscape-font-specification:'Times New Roman,  Bold';text-align:center;letter-spacing:0px;word-spacing:0px;text-anchor:middle;fill:#292f3b;fill-opacity:1;stroke:#383838;stroke-width:1.30069;stroke-linejoin:bevel;stroke-miterlimit:0;stroke-dasharray:none"
     x="494.76645"
     y="177.59952"
     id="text1"
     inkscape:export-filename="full-logo.png"
     inkscape:export-xdpi="96"
     inkscape:export-ydpi="96"><tspan
       sodipodi:role="line"
       id="tspan1"
       x="494.76645"
       y="177.59952"
       style="font-style:normal;font-variant:normal;font-weight:500;font-stretch:normal;font-size:165.167px;font-family:Poppins;-inkscape-font-specification:'Poppins Medium';fill:#292f3b;fill-opacity:1;stroke:none;stroke-width:1.30069;stroke-dasharray:none">halava</tspan></text>
</svg>
